<svg version="1.2" xmlns="http://www.w3.org/2000/svg" viewBox="0 0 806 339" width="806" height="339">
	<title>Stine_No_Tag_Green_Orange_Vector-ai-svg</title>
	<style>
		.s0 { fill: #008445 } 
		.s1 { fill: #f16a2d } 
	</style>
	<g id="Layer 1">
		<g id="&lt;Group&gt;">
			<path id="&lt;Path&gt;" class="s0" d="m516.1 98.4c-18.6 0-36.1 8-49.2 27.5l4-24.8-65.4 0.2-24.2 138.7h65.9l12-67.8c2.4-13.5 6.3-20 16-20 8.1 0 8.8 8.6 7.7 14.9l-12.9 72.9h65.5l15.3-91.5c2.6-14.7 1.8-28.4-4-36.7-5.8-8.2-17.8-13.4-30.7-13.4z"/>
			<path id="&lt;Path&gt;" class="s0" d="m159.6 100.3c-22.3-13.1-49.1-16.5-38.4-31.1 11.1-15.2 35.3-2.4 39.9 0.4 10.1 6.3 20.3 17 20.3 17l28.8-54.5c0 0-28.2-25.5-60.2-30.5-21.1-3.3-84.4-8-105.8 53.8-21.3 61.8 31.7 90 37.2 93.1 19.9 11.4 43.1 13.2 36.6 24.9-7 12.8-28.3 11.5-47.7 0.5-20.7-11.7-28.6-28.5-28.6-28.5l-41.7 53.9c0 0 23.6 24.1 47.7 36.3 20.6 10.5 102.3 33.7 136.7-28.6 32.3-58.7-4.1-94.6-24.8-106.7z"/>
			<path id="&lt;Path&gt;" class="s0" d="m317.3 100.4h-21.6l7.6-44.4h-64.9l-8 44.4h-17.5l-9.2 52.9h17.2l-15.5 86.9h66.2l15-86.9h22.7z"/>
			<path id="&lt;Compound Path&gt;" fill-rule="evenodd" class="s0" d="m715.4 170.9q-0.9 5.8-2.6 11.3h-93.9c0 0-1.9 11.7-1.5 12.7 0.5 1-0.4 11.4 12 11.4 12.5 0 15.8-11.8 15.8-11.8l54.6 13.6c-16.6 22.4-44 35.7-74.7 35.7-51.6 0-75.6-29.5-68.7-72.9 6.4-40.2 46.5-72.9 90.4-72.9 43.9 0 75.1 32.7 68.6 72.9zm-73.5-36c-14.5 0-17.7 18.1-17.7 18.1h30.3c0 0 1.9-18.1-12.6-18.1z"/>
			<path id="&lt;Path&gt;" class="s0" d="m327.5 101l-25 139.2h66.3l23.9-139.2z"/>
			<path id="&lt;Path&gt;" class="s0" d="m362.9 90c20.3 0 39.3-14.7 42.3-32.7 3.1-18.1-10.9-32.7-31.2-32.7-20.2 0-39.2 14.6-42.2 32.7-3.1 18 10.9 32.7 31.1 32.7z"/>
		</g>
		<path id="&lt;Path&gt;" class="s1" d="m805.3 272.2h-702.9l-13.3 66h706.7z"/>
	</g>
</svg>